<svg width="399" height="99" viewBox="0 0 399 99" fill="none" xmlns="http://www.w3.org/2000/svg">
<path fill-rule="evenodd" clip-rule="evenodd" d="M34.65 21.0375C15.5133 21.0375 0 36.5508 0 55.6875V64.35C0 83.4867 15.5133 99 34.65 99H80.4375C99.5742 99 115.088 83.4867 115.088 64.35V55.6875C115.088 36.5508 99.5742 21.0375 80.4375 21.0375H34.65ZM40.2188 32.175C24.8411 32.175 12.375 44.6411 12.375 60.0187C12.375 75.3964 24.8411 87.8625 40.2188 87.8625H74.8688C90.2464 87.8625 102.713 75.3964 102.713 60.0187C102.713 44.6411 90.2464 32.175 74.8688 32.175H40.2188Z" fill="#505050"/>
<path d="M0 0H12.375V64.35H0V0Z" fill="#505050"/>
<circle cx="46.4063" cy="58.7813" r="8.04375" fill="#717171"/>
<circle cx="83.5313" cy="58.7813" r="8.04375" fill="#717171"/>
<path d="M230.175 65.5875V33.4125H247.5V21.0375H230.175V0H217.181V69.3C220.646 89.1 236.775 95.2875 244.406 95.9062H254.925V81.675C235.62 83.16 230.381 71.5687 230.175 65.5875Z" fill="#717171"/>
<path fill-rule="evenodd" clip-rule="evenodd" d="M155.925 21.0375C136.788 21.0375 121.275 36.5508 121.275 55.6875V64.35C121.275 83.4867 136.788 99 155.925 99H176.963C196.099 99 211.613 83.4867 211.613 64.35V55.6875C211.613 36.5508 196.099 21.0375 176.963 21.0375H155.925ZM161.494 32.175C146.116 32.175 133.65 44.6411 133.65 60.0187C133.65 75.3964 146.116 87.8625 161.494 87.8625H171.394C186.771 87.8625 199.238 75.3964 199.238 60.0187C199.238 44.6411 186.771 32.175 171.394 32.175H161.494Z" fill="#717171"/>
<path d="M289.946 97.02C287.554 97.02 284.914 96.855 282.026 96.525C279.139 96.2775 276.375 95.865 273.735 95.2875C271.178 94.71 269.033 94.0912 267.3 93.4312V81.675C270.6 82.995 273.983 83.985 277.448 84.645C280.995 85.2225 284.543 85.5113 288.09 85.5113C294.525 85.5113 299.31 84.5625 302.445 82.665C305.58 80.7675 307.148 77.4263 307.148 72.6413C307.148 68.3513 305.704 65.2575 302.816 63.36C300.011 61.4625 295.969 60.5138 290.689 60.5138H278.685L279.799 50.49H289.823C300.3 50.49 305.539 46.365 305.539 38.115C305.539 34.0725 304.136 31.1025 301.331 29.205C298.609 27.3075 294.195 26.3587 288.09 26.3587C284.708 26.3587 281.284 26.6888 277.819 27.3488C274.436 28.0088 271.425 28.9163 268.785 30.0713V18.5625C271.26 17.5725 274.478 16.7063 278.438 15.9638C282.398 15.2213 286.316 14.85 290.194 14.85C299.929 14.85 307.148 16.9125 311.85 21.0375C316.635 25.1625 319.028 30.4425 319.028 36.8775C319.028 40.8375 318.038 44.55 316.058 48.015C314.16 51.48 311.149 53.955 307.024 55.44C311.809 56.6775 315.274 58.905 317.419 62.1225C319.646 65.34 320.76 69.135 320.76 73.5075C320.76 81.51 317.955 87.45 312.345 91.3275C306.735 95.1225 299.269 97.02 289.946 97.02Z" fill="#717171"/>
<path fill-rule="evenodd" clip-rule="evenodd" d="M345.76 0C343.551 0 341.76 1.79086 341.76 3.99999V31.9731C341.76 34.1822 343.551 35.9731 345.76 35.9731H394.717C396.927 35.9731 398.717 34.1822 398.717 31.9731V4C398.717 1.79086 396.927 0 394.717 0H345.76ZM383.361 14.4852C382.467 14.4852 381.742 15.2099 381.742 16.104V29.9176C381.742 30.8116 382.467 31.5364 383.361 31.5364C384.255 31.5364 384.979 30.8117 384.979 29.9176V16.104C384.979 15.2099 384.255 14.4852 383.361 14.4852ZM381.67 6.71498C381.214 7.17064 380.986 7.72222 380.986 8.36974C380.986 9.01725 381.214 9.58083 381.67 10.0605C382.149 10.5161 382.713 10.744 383.361 10.744C384.008 10.744 384.56 10.5161 385.015 10.0605C385.495 9.58083 385.735 9.01725 385.735 8.36974C385.735 7.72222 385.495 7.17064 385.015 6.71498C384.56 6.23533 384.008 5.99551 383.361 5.99551C382.713 5.99551 382.149 6.23533 381.67 6.71498ZM366.53 6.06746C365.585 6.06746 364.729 6.62585 364.347 7.49107L354.878 28.9788C354.347 30.1835 355.23 31.5364 356.546 31.5364C357.291 31.5364 357.962 31.0827 358.238 30.3907L359.292 27.7556C359.9 26.2369 361.371 25.2411 363.006 25.2411H369.727C371.356 25.2411 372.822 26.2283 373.434 27.7373L374.509 30.3879C374.791 31.0822 375.465 31.5364 376.215 31.5364C377.535 31.5364 378.426 30.1862 377.907 28.9719L368.724 7.51447C368.348 6.63671 367.485 6.06746 366.53 6.06746ZM369.353 17.766C370.217 19.8937 368.652 22.2194 366.355 22.2194C364.052 22.2194 362.486 19.8801 363.364 17.7502L366.328 10.5613C366.336 10.5412 366.356 10.5281 366.377 10.5281C366.399 10.5281 366.419 10.5413 366.427 10.5615L369.353 17.766Z" fill="#A9A9A9"/>
</svg>
