<svg width="133" height="34" viewBox="0 0 133 34" fill="none" xmlns="http://www.w3.org/2000/svg">
<path fill-rule="evenodd" clip-rule="evenodd" d="M11.5586 7.01775C5.17498 7.01775 0 12.1927 0 18.5764V21.466C0 27.8497 5.17498 33.0247 11.5586 33.0247H26.8326C33.2162 33.0247 38.3912 27.8497 38.3912 21.466V18.5764C38.3912 12.1927 33.2162 7.01775 26.8326 7.01775H11.5586ZM13.4163 10.733C8.28655 10.733 4.12809 14.8915 4.12809 20.0212C4.12809 25.1509 8.28655 29.3094 13.4163 29.3094H24.9749C30.1047 29.3094 34.2631 25.1509 34.2631 20.0212C34.2631 14.8915 30.1047 10.733 24.9749 10.733H13.4163Z" fill="url(#paint0_linear_992_127)"/>
<path d="M0 0H4.12809V21.466H0V0Z" fill="url(#paint1_linear_992_127)"/>
<circle cx="15.4803" cy="19.6084" r="2.68326" fill="#FF95F4"/>
<circle cx="27.8646" cy="19.6084" r="2.68326" fill="#FF95F4"/>
<path d="M76.7824 21.8789V11.1458H82.5617V7.01775H76.7824V0H72.4479V23.1173C73.6038 29.7222 78.9841 31.7863 81.5297 31.9927H85.0386V27.2454C78.5988 27.7407 76.8512 23.8741 76.7824 21.8789Z" fill="white"/>
<path fill-rule="evenodd" clip-rule="evenodd" d="M52.0139 7.01775C45.6302 7.01775 40.4552 12.1927 40.4552 18.5764V21.466C40.4552 27.8497 45.6302 33.0247 52.0139 33.0247H59.0316C65.4153 33.0247 70.5903 27.8497 70.5903 21.466V18.5764C70.5903 12.1927 65.4153 7.01775 59.0316 7.01775H52.0139ZM53.8715 10.733C48.7418 10.733 44.5833 14.8915 44.5833 20.0212C44.5833 25.1509 48.7418 29.3094 53.8715 29.3094H57.174C62.3037 29.3094 66.4622 25.1509 66.4622 20.0212C66.4622 14.8915 62.3037 10.733 57.174 10.733H53.8715Z" fill="white"/>
<path d="M96.7211 32.3642C95.923 32.3642 95.0423 32.3092 94.0791 32.1991C93.1159 32.1165 92.1939 31.9789 91.3133 31.7863C90.4601 31.5936 89.7446 31.3872 89.1667 31.167V27.2454C90.2675 27.6857 91.3958 28.0159 92.5517 28.2361C93.7351 28.4288 94.9185 28.5251 96.1018 28.5251C98.2485 28.5251 99.8446 28.2086 100.89 27.5756C101.936 26.9426 102.459 25.8281 102.459 24.2319C102.459 22.8008 101.977 21.7688 101.014 21.1358C100.079 20.5028 98.7301 20.1863 96.9687 20.1863H92.9645L93.336 16.8426H96.6798C100.175 16.8426 101.922 15.4666 101.922 12.7145C101.922 11.366 101.455 10.3753 100.519 9.74228C99.6107 9.10931 98.1384 8.79282 96.1018 8.79282C94.9735 8.79282 93.8314 8.90291 92.6755 9.12307C91.5472 9.34324 90.5427 9.64596 89.662 10.0312V6.19213C90.4877 5.86188 91.561 5.57292 92.8819 5.32523C94.2029 5.07755 95.5102 4.9537 96.8036 4.9537C100.051 4.9537 102.459 5.64172 104.028 7.01775C105.624 8.39378 106.422 10.1551 106.422 12.3017C106.422 13.6227 106.092 14.8611 105.431 16.017C104.798 17.1728 103.794 17.9985 102.418 18.4938C104.014 18.9066 105.17 19.6497 105.885 20.723C106.628 21.7963 107 23.0622 107 24.5208C107 27.1903 106.064 29.1718 104.193 30.4653C102.321 31.7312 99.8309 32.3642 96.7211 32.3642Z" fill="white"/>
<path fill-rule="evenodd" clip-rule="evenodd" d="M118 0C115.791 0 114 1.79086 114 4V8C114 10.2091 115.791 12 118 12H129C131.209 12 133 10.2091 133 8V4C133 1.79086 131.209 0 129 0H118ZM127.877 4.832C127.579 4.832 127.337 5.07377 127.337 5.372V9.98C127.337 10.2782 127.579 10.52 127.877 10.52C128.175 10.52 128.417 10.2782 128.417 9.98V5.372C128.417 5.07377 128.175 4.832 127.877 4.832ZM127.313 2.24C127.161 2.392 127.085 2.576 127.085 2.792C127.085 3.008 127.161 3.196 127.313 3.356C127.473 3.508 127.661 3.584 127.877 3.584C128.093 3.584 128.277 3.508 128.429 3.356C128.589 3.196 128.669 3.008 128.669 2.792C128.669 2.576 128.589 2.392 128.429 2.24C128.277 2.08 128.093 2 127.877 2C127.661 2 127.473 2.08 127.313 2.24ZM122.263 2.024C121.948 2.024 121.662 2.21027 121.535 2.49889L118.376 9.66681C118.199 10.0687 118.493 10.52 118.932 10.52C119.181 10.52 119.405 10.3686 119.497 10.1378L119.764 9.47C120.018 8.83584 120.632 8.42 121.315 8.42H123.095C123.78 8.42 124.396 8.83526 124.654 9.47L124.925 10.1369C125.019 10.3685 125.244 10.52 125.493 10.52C125.934 10.52 126.231 10.0696 126.058 9.66451L122.995 2.5067C122.869 2.21389 122.581 2.024 122.263 2.024ZM123.205 5.92643C123.493 6.6362 122.971 7.412 122.205 7.412C121.436 7.412 120.914 6.63166 121.207 5.92117L122.195 3.52306C122.198 3.51637 122.205 3.512 122.212 3.512C122.219 3.512 122.226 3.51641 122.229 3.52315L123.205 5.92643Z" fill="url(#paint2_linear_992_127)"/>
<defs>
<linearGradient id="paint0_linear_992_127" x1="19.1956" y1="0" x2="19.1956" y2="33.0247" gradientUnits="userSpaceOnUse">
<stop stop-color="#FFA8FC"/>
<stop offset="1" stop-color="#FF7682"/>
</linearGradient>
<linearGradient id="paint1_linear_992_127" x1="19.1956" y1="0" x2="19.1956" y2="33.0247" gradientUnits="userSpaceOnUse">
<stop stop-color="#FFA8FC"/>
<stop offset="1" stop-color="#FF7682"/>
</linearGradient>
<linearGradient id="paint2_linear_992_127" x1="123.5" y1="0" x2="123.5" y2="12" gradientUnits="userSpaceOnUse">
<stop stop-color="#FF9BDD"/>
<stop offset="1" stop-color="#FF7A8B"/>
</linearGradient>
</defs>
</svg>
