<svg width="301" height="41" viewBox="0 0 301 41" fill="none" xmlns="http://www.w3.org/2000/svg">
<path d="M102.919 9.7818H99.813C95.9025 9.7818 95.9498 5.55643 95.9498 5.55643V2.35259C95.9498 1.05247 94.8775 0 93.553 0H66.5578C65.2332 0 64.161 1.05247 64.161 2.35259V28.8656C64.161 30.1657 65.2332 31.2182 66.5578 31.2182H69.6956C73.5746 31.2337 73.5273 35.4436 73.5273 35.4436V38.6474C73.5273 39.9475 74.5996 41 75.9241 41H102.919C104.244 41 105.316 39.9475 105.316 38.6474V12.1344C105.3 10.8343 104.228 9.7818 102.919 9.7818ZM75.2145 25.9249V10.8497H90.3993C94.3099 10.8497 94.2626 15.0751 94.2626 15.0751V15.0596V30.1502H79.0778C75.1672 30.1657 75.2145 25.9249 75.2145 25.9249Z" fill="black"/>
<path d="M14.6329 10.6795H38.0803C39.3733 10.6795 40.4298 9.64252 40.4298 8.37336V2.33712C40.4298 1.06797 39.3733 0.0309718 38.0803 0.0309718H11.5739C10.2809 0.0309718 9.22442 1.06797 9.22442 2.33712V5.40168C9.22442 5.40168 9.27173 9.56513 5.42428 9.56513H2.34947C1.05647 9.56513 0 10.6021 0 11.8713V29.1906C0 30.4598 1.05647 31.4968 2.34947 31.4968H5.45581C9.25596 31.5278 9.22442 35.6448 9.22442 35.6448V38.6939C9.22442 39.963 10.2809 41 11.5739 41H38.0961C39.3891 41 40.4455 39.963 40.4455 38.6939V32.6576C40.4455 31.3885 39.3891 30.3515 38.0961 30.3515H14.6014C11.3216 30.3205 10.8959 27.256 10.8486 26.4047V14.6727C10.8959 13.8369 11.3058 10.695 14.6329 10.6795Z" fill="black"/>
<path d="M168.184 17.4277H165.078C161.215 17.4277 162.476 15.0442 162.476 15.0442L169.398 8.20309C169.84 7.76972 170.076 7.18158 170.076 6.57795V2.30615C170.076 1.03699 169.036 0.0154776 167.743 0.0154776H163.438C162.823 0.0154776 162.224 0.263118 161.782 0.681011L150.729 11.3296C149.814 12.2273 148.332 12.2273 147.417 11.3296L136.569 0.665534C136.127 0.232163 135.544 0 134.913 0H130.908C129.615 0 128.574 1.02152 128.574 2.29067V6.39222C128.574 6.99584 128.827 7.58399 129.268 8.01736L136.427 15.0132C136.427 15.0132 137.688 17.3967 133.825 17.3967H130.719C129.41 17.3967 128.338 18.4492 128.338 19.7339V38.601C128.338 39.8856 129.41 40.9381 130.719 40.9381H136.931C138.24 40.9381 139.312 39.8856 139.312 38.601V22.3341C139.312 17.8766 141.757 20.2446 141.757 20.2446L144.863 23.2782C145.304 23.7116 145.888 23.9437 146.519 23.9437H152.4C153.015 23.9437 153.614 23.6961 154.056 23.2782L157.146 20.2291C157.146 20.2291 159.59 17.8611 159.59 22.3186V38.6164C159.59 39.9011 160.663 40.9536 161.971 40.9536H168.184C169.493 40.9536 170.565 39.9011 170.565 38.6164V19.7648C170.565 18.4647 169.493 17.4277 168.184 17.4277Z" fill="black"/>
<path d="M233.354 17.6753H228.797C227.615 17.6753 226.858 16.2204 228.072 15.0287L229.412 13.7131L233.622 9.61154C234.095 9.17817 234.395 8.57454 234.395 7.89353V2.35257C234.395 1.06794 233.323 0.0154657 232.014 0.0154657H196.157C194.848 0.0154657 193.776 1.06794 193.776 2.35257V23.0615C193.776 24.3462 194.848 25.3986 196.157 25.3986H200.446C201.502 25.3986 201.692 26.2189 200.761 27.1321L194.47 33.1683C194.028 33.5862 193.776 34.1744 193.776 34.778V38.6783C193.776 39.932 194.801 40.9381 196.078 40.9381H200.525C201.14 40.9381 201.723 40.7059 202.149 40.288L208.835 33.772C210.38 32.2552 211.941 32.1159 211.941 33.772V38.601C211.941 39.8856 213.013 40.9381 214.322 40.9381H233.354C234.663 40.9381 235.735 39.8856 235.735 38.601V20.0124C235.735 18.7278 234.679 17.6753 233.354 17.6753ZM214.827 30.7384C213.392 30.7384 212.95 29.7788 214.353 28.4013L223.136 19.8422C224.619 18.3873 225.344 19.2386 225.344 20.647V30.7384H214.827ZM214.905 13.5119H214.937L205.665 22.4115C205.429 22.6281 204.183 23.046 204.183 21.684V10.2306H212.414C216.892 10.2306 214.905 13.5119 214.905 13.5119Z" fill="black"/>
<path d="M298.572 0.0155061H271.198C269.858 0.0155061 268.77 1.08346 268.77 2.39905V5.52551C268.754 9.39489 264.402 9.34846 264.402 9.34846H261.106C259.766 9.34846 258.678 10.4164 258.678 11.732V38.6165C258.678 39.9321 259.766 41 261.106 41H288.48C289.82 41 290.908 39.9321 290.908 38.6165V35.521C290.908 31.6206 295.276 31.6671 295.276 31.6671H298.572C299.912 31.6671 301 30.5991 301 29.2835V2.39905C301 1.08346 299.912 0.0155061 298.572 0.0155061ZM289.805 26.1571C289.805 30.0574 285.437 30.011 285.437 30.011H285.453H269.873V14.8739C269.873 10.9736 274.241 11.02 274.241 11.02H274.226H289.805V26.1571Z" fill="black"/>
</svg>
